<svg width="600" height="350" viewBox="0 0 600 350" fill="none" xmlns="http://www.w3.org/2000/svg">
<rect width="600" height="350" fill="#1E1E1E"/>
<path d="M0 0H600V350H0V0Z" fill="#D9D9D9"/>
<rect width="150" height="350" fill="black"/>
<g clip-path="url(#clip0_0_1)">
<path d="M123 22H27V110H123V22Z" fill="#1E1E1E"/>
<path d="M123 22H27V110H123V22Z" fill="black"/>
<path d="M114.6 29.7H35.4V102.3H114.6V29.7Z" fill="white"/>
<path d="M76.2 35.2H41.4V42.9H76.2V35.2Z" fill="black"/>
<path d="M108.6 89.1H49.8V96.8H108.6V89.1Z" fill="black"/>
<path d="M49.8 42.9H41.4V96.8H49.8V42.9Z" fill="black"/>
<path d="M93 35.2H84.6V60.5H93V35.2Z" fill="black"/>
<path d="M100.2 42.9H93V53.9H100.2V42.9Z" fill="black"/>
<path d="M108.6 35.2H100.2V60.5H108.6V35.2Z" fill="black"/>
<path d="M96.6 46.2C98.5882 46.2 100.2 44.7225 100.2 42.9C100.2 41.0775 98.5882 39.6 96.6 39.6C94.6118 39.6 93 41.0775 93 42.9C93 44.7225 94.6118 46.2 96.6 46.2Z" fill="white"/>
<path d="M96.6 57.2C98.5882 57.2 100.2 55.7225 100.2 53.9C100.2 52.0775 98.5882 50.6 96.6 50.6C94.6118 50.6 93 52.0775 93 53.9C93 55.7225 94.6118 57.2 96.6 57.2Z" fill="white"/>
<path d="M87 81.4C92.3019 81.4 96.6 77.4601 96.6 72.6C96.6 67.7399 92.3019 63.8 87 63.8C81.6981 63.8 77.4 67.7399 77.4 72.6C77.4 77.4601 81.6981 81.4 87 81.4Z" fill="black"/>
<path d="M82.2 72.6H77.4V89.1H82.2V72.6Z" fill="black"/>
<path d="M96.6 72.6H91.8V89.1H96.6V72.6Z" fill="black"/>
<path d="M87 78.1C90.3137 78.1 93 75.6376 93 72.6C93 69.5624 90.3137 67.1 87 67.1C83.6863 67.1 81 69.5624 81 72.6C81 75.6376 83.6863 78.1 87 78.1Z" fill="#FF0000"/>
<path d="M96.6 89.65C96.6 87.1703 95.5885 84.7921 93.7883 83.0386C91.9879 81.2851 89.546 80.3 87 80.3C84.454 80.3 82.0121 81.2851 80.2117 83.0386C78.4115 84.7921 77.4 87.1703 77.4 89.65H87H96.6Z" fill="black"/>
<path d="M90.6 85.8C90.6 85.3666 90.5069 84.9375 90.3259 84.5371C90.1451 84.1368 89.8799 83.773 89.5456 83.4666C89.2112 83.1601 88.8144 82.917 88.3777 82.7512C87.9409 82.5854 87.4728 82.5 87 82.5C86.5272 82.5 86.0591 82.5854 85.6223 82.7512C85.1856 82.917 84.7888 83.1601 84.4544 83.4666C84.1201 83.773 83.8549 84.1368 83.6741 84.5371C83.4931 84.9375 83.4 85.3666 83.4 85.8H87H90.6Z" fill="white"/>
<path d="M90.6 85.8H83.4V89.1H90.6V85.8Z" fill="white"/>
<path d="M81.8952 80.3181C81.8952 80.4984 81.8639 80.7091 81.9054 80.8848C81.931 80.9936 82.032 81.1144 82.032 81.2169C82.032 81.5114 82.6624 81.0253 82.7591 80.9219C82.8209 80.8558 82.7983 80.751 82.8756 80.6944C83.0173 80.5904 82.9373 80.668 83.0808 80.7454C83.247 80.835 83.4151 81.0706 83.628 81.0706" stroke="black" stroke-linecap="round"/>
<path d="M90.1032 80.6106C90.4102 80.7715 90.5776 81.0617 90.8353 81.2585C90.9706 81.3619 91.1884 80.7756 91.1976 80.6618C91.2121 80.4817 91.3404 80.3664 91.3774 80.2135C91.4132 80.0656 91.6201 80.2782 91.6764 80.3412C91.7678 80.4438 91.836 80.6508 91.836 80.7778C91.836 80.8622 91.8761 81.0709 91.8106 81.1308C91.733 81.202 91.6992 81.3011 91.6992 81.4048" stroke="black" stroke-linecap="round"/>
<path d="M66 85.8C70.9706 85.8 75 82.1063 75 77.55C75 72.9937 70.9706 69.3 66 69.3C61.0294 69.3 57 72.9937 57 77.55C57 82.1063 61.0294 85.8 66 85.8Z" fill="black"/>
<path d="M76.2 89.65C76.2 87.1703 75.1254 84.7921 73.2125 83.0386C71.2995 81.2851 68.7051 80.3 66 80.3C63.2948 80.3 60.7004 81.2851 58.7875 83.0386C56.8746 84.7921 55.8 87.1703 55.8 89.65H66H76.2Z" fill="black"/>
<path d="M60.6 70.4H65.4" stroke="black" stroke-width="2" stroke-linecap="round"/>
<path d="M69 88C69 87.5666 68.9069 87.1375 68.7259 86.7371C68.5451 86.3368 68.2799 85.973 67.9455 85.6666C67.6112 85.3601 67.2144 85.117 66.7777 84.9512C66.3409 84.7854 65.8728 84.7 65.4 84.7C64.9272 84.7 64.4591 84.7854 64.0223 84.9512C63.5856 85.117 63.1887 85.3601 62.8544 85.6666C62.5201 85.973 62.2549 86.3368 62.0741 86.7371C61.8931 87.1375 61.8 87.5666 61.8 88H65.4H69Z" fill="white"/>
<path d="M65.4 80.3C67.3882 80.3 69 78.8225 69 77C69 75.1775 67.3882 73.7 65.4 73.7C63.4118 73.7 61.8 75.1775 61.8 77C61.8 78.8225 63.4118 80.3 65.4 80.3Z" fill="white"/>
<path d="M61.8 69.3H55.8V89.1H61.8V69.3Z" fill="black"/>
<path d="M102.6 64.9H99V86.9H102.6V64.9Z" fill="black"/>
<path d="M108.6 64.9H105V77H108.6V64.9Z" fill="black"/>
<path d="M105 64.9H102.6V68.2H105V64.9Z" fill="black"/>
<path d="M108.6 79.2H105V86.9H108.6V79.2Z" fill="black"/>
<path d="M105 83.6H102.6V86.9H105V83.6Z" fill="black"/>
<path d="M105 79.2H103.8V81.4H105V79.2Z" fill="black"/>
<path d="M64.2 66C70.1647 66 75 61.5676 75 56.1C75 50.6324 70.1647 46.2 64.2 46.2C58.2353 46.2 53.4 50.6324 53.4 56.1C53.4 61.5676 58.2353 66 64.2 66Z" fill="#FF0000"/>
<path d="M75 51.7H53.4V53.9H75V51.7Z" fill="#FFD600"/>
<path d="M66.6 51.7H61.8V60.5H66.6V51.7Z" fill="#FFD600"/>
<path d="M75 58.3H53.4V60.5H75V58.3Z" fill="#FFD600"/>
<path d="M77.4 56.1C77.4 62.7826 71.4901 68.2 64.2 68.2C56.9099 68.2 51 62.7826 51 56.1C51 49.4174 56.9099 44 64.2 44C71.4901 44 77.4 49.4174 77.4 56.1ZM53.5711 56.1C53.5711 61.481 58.3298 65.8431 64.2 65.8431C70.0702 65.8431 74.8289 61.481 74.8289 56.1C74.8289 50.719 70.0702 46.3569 64.2 46.3569C58.3298 46.3569 53.5711 50.719 53.5711 56.1Z" fill="white"/>
<path d="M61.8 53.9H60.6V55H61.8V53.9Z" fill="#FFD600"/>
<path d="M61.8 55C61.8 54.8556 61.7689 54.7125 61.7087 54.579C61.6483 54.4456 61.56 54.3244 61.4485 54.2222C61.337 54.12 61.2048 54.039 61.0592 53.9837C60.9137 53.9285 60.7576 53.9 60.6 53.9V55H61.8Z" fill="#FF0000"/>
<path d="M61.8001 58.3V57.2H60.6001V58.3H61.8001Z" fill="#FFD600"/>
<path d="M60.6001 58.3C60.7577 58.3 60.9137 58.2715 61.0592 58.2163C61.2049 58.161 61.3372 58.08 61.4486 57.9778C61.56 57.8756 61.6484 57.7544 61.7087 57.621C61.769 57.4875 61.8001 57.3444 61.8001 57.2H60.6001V58.3Z" fill="#FF0000"/>
<path d="M66.6002 58.2996H67.8002V57.1996H66.6002V58.2996Z" fill="#FFD600"/>
<path d="M66.6003 57.1996C66.6003 57.344 66.6312 57.487 66.6916 57.6205C66.7519 57.754 66.8403 57.8752 66.9517 57.9774C67.0631 58.0794 67.1955 58.1605 67.341 58.2158C67.4866 58.2711 67.6427 58.2996 67.8003 58.2996V57.1996H66.6003Z" fill="#FF0000"/>
<path d="M66.6001 53.8998V54.9998H67.8001V53.8998H66.6001Z" fill="#FFD600"/>
<path d="M67.8001 53.8998C67.6426 53.8998 67.4866 53.9282 67.3409 53.9835C67.1953 54.0387 67.0631 54.1198 66.9516 54.2219C66.8402 54.3241 66.7518 54.4453 66.6914 54.5788C66.6312 54.7122 66.6001 54.8552 66.6001 54.9998H67.8001V53.8998Z" fill="#FF0000"/>
</g>
<defs>
<clipPath id="clip0_0_1">
<rect width="96" height="88" fill="white" transform="translate(27 22)"/>
</clipPath>
</defs>
</svg>
