<svg width="80" height="80" viewBox="0 0 80 80" fill="none" xmlns="http://www.w3.org/2000/svg">
<rect width="80" height="80" fill="#1E1E1E"/>
<rect width="80" height="80" fill="black"/>
<rect x="7" y="7" width="66" height="66" fill="white"/>
<rect x="12" y="12" width="29" height="7" fill="black"/>
<rect x="19" y="61" width="49" height="7" fill="black"/>
<rect x="12" y="19" width="7" height="49" fill="black"/>
<rect x="48" y="12" width="7" height="23" fill="black"/>
<rect x="55" y="19" width="6" height="10" fill="black"/>
<rect x="61" y="12" width="7" height="23" fill="black"/>
<circle cx="58" cy="19" r="3" fill="white"/>
<circle cx="58" cy="29" r="3" fill="white"/>
<circle cx="50" cy="46" r="8" fill="black"/>
<rect x="42" y="46" width="4" height="15" fill="black"/>
<rect x="54" y="46" width="4" height="15" fill="black"/>
<circle cx="50" cy="46" r="5" fill="#FF0000"/>
<path d="M58 61.5C58 59.2457 57.1571 57.0837 55.6569 55.4896C54.1566 53.8955 52.1217 53 50 53C47.8783 53 45.8434 53.8955 44.3431 55.4896C42.8429 57.0837 42 59.2457 42 61.5L50 61.5H58Z" fill="black"/>
<path d="M53 58C53 57.606 52.9224 57.2159 52.7716 56.8519C52.6209 56.488 52.3999 56.1573 52.1213 55.8787C51.8427 55.6001 51.512 55.3791 51.1481 55.2284C50.7841 55.0776 50.394 55 50 55C49.606 55 49.2159 55.0776 48.8519 55.2284C48.488 55.3791 48.1573 55.6001 47.8787 55.8787C47.6001 56.1573 47.3791 56.488 47.2284 56.8519C47.0776 57.2159 47 57.606 47 58L50 58H53Z" fill="white"/>
<rect x="47" y="58" width="6" height="3" fill="white"/>
<path d="M45.746 53.0165C45.746 53.1804 45.7199 53.3719 45.7545 53.5316C45.7758 53.6305 45.86 53.7404 45.86 53.8335C45.86 54.1013 46.3853 53.6594 46.4659 53.5654C46.5174 53.5053 46.4986 53.41 46.563 53.3585C46.6811 53.264 46.6144 53.3345 46.734 53.4049C46.8725 53.4864 47.0126 53.7005 47.19 53.7005" stroke="black" stroke-linecap="round"/>
<path d="M52.586 53.2824C52.8418 53.4286 52.9813 53.6925 53.1961 53.8714C53.3088 53.9654 53.4903 53.4324 53.498 53.3289C53.5101 53.1652 53.617 53.0604 53.6478 52.9214C53.6777 52.7869 53.8501 52.9802 53.897 53.0375C53.9732 53.1307 54.03 53.3189 54.03 53.4344C54.03 53.5111 54.0634 53.7008 54.0088 53.7553C53.9442 53.82 53.916 53.9101 53.916 54.0044" stroke="black" stroke-linecap="round"/>
<circle cx="32.5" cy="50.5" r="7.5" fill="black"/>
<path d="M41 61.5C41 59.2457 40.1045 57.0837 38.5104 55.4896C36.9163 53.8955 34.7543 53 32.5 53C30.2457 53 28.0837 53.8955 26.4896 55.4896C24.8955 57.0837 24 59.2457 24 61.5L32.5 61.5H41Z" fill="black"/>
<path d="M28 44L32 44" stroke="black" stroke-width="2" stroke-linecap="round"/>
<path d="M35 60C35 59.606 34.9224 59.2159 34.7716 58.8519C34.6209 58.488 34.3999 58.1573 34.1213 57.8787C33.8427 57.6001 33.512 57.3791 33.1481 57.2284C32.7841 57.0776 32.394 57 32 57C31.606 57 31.2159 57.0776 30.8519 57.2284C30.488 57.3791 30.1573 57.6001 29.8787 57.8787C29.6001 58.1573 29.3791 58.488 29.2284 58.8519C29.0776 59.2159 29 59.606 29 60L32 60H35Z" fill="white"/>
<circle cx="32" cy="50" r="3" fill="white"/>
<rect x="24" y="43" width="5" height="18" fill="black"/>
<rect x="60" y="39" width="3" height="20" fill="black"/>
<rect x="65" y="39" width="3" height="11" fill="black"/>
<rect x="63" y="39" width="2" height="3" fill="black"/>
<rect x="65" y="52" width="3" height="7" fill="black"/>
<rect x="63" y="56" width="2" height="3" fill="black"/>
<rect x="64" y="52" width="1" height="2" fill="black"/>
<circle cx="31" cy="31" r="9" fill="#FF0000"/>
<rect x="22" y="27" width="18" height="2" fill="#FFD600"/>
<rect x="29" y="27" width="4" height="8" fill="#FFD600"/>
<rect x="22" y="33" width="18" height="2" fill="#FFD600"/>
<path d="M42 31C42 37.0751 37.0751 42 31 42C24.9249 42 20 37.0751 20 31C20 24.9249 24.9249 20 31 20C37.0751 20 42 24.9249 42 31ZM22.1426 31C22.1426 35.8918 26.1082 39.8574 31 39.8574C35.8918 39.8574 39.8574 35.8918 39.8574 31C39.8574 26.1082 35.8918 22.1426 31 22.1426C26.1082 22.1426 22.1426 26.1082 22.1426 31Z" fill="white"/>
<rect x="28" y="29" width="1" height="1" fill="#FFD600"/>
<path d="M29 30C29 29.8687 28.9741 29.7386 28.9239 29.6173C28.8736 29.496 28.8 29.3858 28.7071 29.2929C28.6142 29.2 28.504 29.1264 28.3827 29.0761C28.2614 29.0259 28.1313 29 28 29L28 30H29Z" fill="#FF0000"/>
<rect x="29.0001" y="32" width="1" height="1" transform="rotate(90 29.0001 32)" fill="#FFD600"/>
<path d="M28.0001 33C28.1314 33 28.2614 32.9741 28.3827 32.9239C28.5041 32.8736 28.6143 32.8 28.7072 32.7071C28.8 32.6142 28.8737 32.504 28.9239 32.3827C28.9742 32.2614 29.0001 32.1313 29.0001 32L28.0001 32V33Z" fill="#FF0000"/>
<rect x="34.0002" y="32.9996" width="1" height="1" transform="rotate(180 34.0002 32.9996)" fill="#FFD600"/>
<path d="M33.0002 31.9996C33.0002 32.1309 33.026 32.2609 33.0763 32.3823C33.1266 32.5036 33.2002 32.6138 33.2931 32.7067C33.3859 32.7995 33.4962 32.8732 33.6175 32.9235C33.7388 32.9737 33.8689 32.9996 34.0002 32.9996L34.0002 31.9996H33.0002Z" fill="#FF0000"/>
<rect x="33.0001" y="29.9998" width="1" height="1" transform="rotate(-90 33.0001 29.9998)" fill="#FFD600"/>
<path d="M34.0001 28.9998C33.8688 28.9998 33.7388 29.0256 33.6174 29.0759C33.4961 29.1261 33.3859 29.1998 33.293 29.2926C33.2002 29.3855 33.1265 29.4957 33.0762 29.6171C33.026 29.7384 33.0001 29.8684 33.0001 29.9998L34.0001 29.9998V28.9998Z" fill="#FF0000"/>
</svg>
